<svg width="152" height="96" viewBox="0 0 152 96" fill="none" xmlns="http://www.w3.org/2000/svg">
<path opacity="0.07" d="M140 0H12C5.2 0 0 5.2 0 12V84C0 90.8 5.6 96 12 96H140C146.8 96 152 90.8 152 84V12C152 5.2 146.4 0 140 0Z" fill="black"/>
<path d="M140 4C144.4 4 148 7.6 148 12V84C148 88.4 144.4 92 140 92H12C7.6 92 4 88.4 4 84V12C4 7.6 7.6 4 12 4H140Z" fill="white"/>
<path d="M35.884 41.072L38.98 48.576H32.812L35.884 41.072ZM100.184 41.384H88.276V44.692H99.992V49.648H88.3V53.336H100.208V56.292L108.516 47.312L100.208 37.952L100.184 41.384ZM43.932 32.024H59.912L63.46 39.764L66.748 32H108.228L112.54 36.76L117 32H136.052L121.976 47.408L135.908 62.72H116.572L112.26 57.96L107.76 62.72H40.12L38.144 57.96H33.624L31.644 62.72H16L29.144 32H42.864L43.932 32.024ZM78.584 36.336H69.628L63.628 50.48L57.128 36.336H48.24V55.576L40 36.336H32.028L22.5 58.384H28.72L30.696 53.624H41.08L43.056 58.384H53.936V42.644L60.94 58.408H65.7L72.66 42.692V58.412H78.492L78.588 36.332L78.584 36.336ZM115.944 47.408L126.068 36.336H118.78L112.376 43.24L106.184 36.336H82.608V58.408H105.848L112.304 51.456L118.496 58.408H125.996L115.948 47.408H115.944Z" fill="#006FCF"/>
</svg>
