<svg width="152" height="96" viewBox="0 0 152 96" fill="none" xmlns="http://www.w3.org/2000/svg">
<path opacity="0.07" d="M140 0H12C5.2 0 0 5.2 0 12V84C0 90.8 5.6 96 12 96H140C146.8 96 152 90.8 152 84V12C152 5.2 146.4 0 140 0Z" fill="black"/>
<path d="M140 4C144.4 4 148 7.6 148 12V84C148 88.4 144.4 92 140 92H12C7.6 92 4 88.4 4 84V12C4 7.6 7.6 4 12 4H140Z" fill="white"/>
<path d="M60 76C75.464 76 88 63.464 88 48C88 32.536 75.464 20 60 20C44.536 20 32 32.536 32 48C32 63.464 44.536 76 60 76Z" fill="#EB001B"/>
<path d="M92 76C107.464 76 120 63.464 120 48C120 32.536 107.464 20 92 20C76.536 20 64 32.536 64 48C64 63.464 76.536 76 92 76Z" fill="#F79E1B"/>
<path d="M88 48C88 38.4 83.2 30 76 25.2C68.8 30.4 64 38.8 64 48C64 57.2 68.8 66 76 70.8C83.2 66 88 57.6 88 48Z" fill="#FF5F00"/>
</svg>
