<svg width="152" height="96" viewBox="0 0 152 96" fill="none" xmlns="http://www.w3.org/2000/svg">
<path opacity="0.07" d="M140 0H12C5.2 0 0 5.2 0 12V84C0 90.8 5.6 96 12 96H140C146.8 96 152 90.8 152 84V12C152 5.2 146.4 0 140 0Z" fill="black"/>
<path d="M140 4C144.4 4 148 7.6 148 12V84C148 88.4 144.4 92 140 92H12C7.6 92 4 88.4 4 84V12C4 7.6 7.6 4 12 4H140Z" fill="white"/>
<path d="M49.2014 20H71.1262C74.1854 20 76.0894 22.4672 75.3758 25.504L65.1678 68.8496C64.4478 71.8768 61.3838 74.3456 58.3198 74.3456H36.3998C33.3438 74.3456 31.435 71.8768 32.1502 68.8496L42.3614 25.5056C43.075 22.4672 46.1374 20.0016 49.2014 20.0016" fill="#E21836"/>
<path d="M69.3006 20H94.5134C97.5726 20 96.1934 22.4672 95.4734 25.504L85.2686 68.8496C84.5518 71.8768 84.7758 74.3456 81.7086 74.3456H56.4974C53.4302 74.3456 51.5326 71.8768 52.2542 68.8496L62.459 25.5056C63.1838 22.4656 66.2398 20 69.3006 20Z" fill="#00447C"/>
<path d="M93.5134 20H115.437C118.502 20 120.405 22.4672 119.685 25.504L109.48 68.8496C108.76 71.8768 105.693 74.3456 102.629 74.3456H80.715C77.6494 74.3456 75.747 71.8768 76.4654 68.8496L86.6734 25.5056C87.387 22.4672 90.4462 20.0016 93.5134 20.0016" fill="#007B84"/>
<path d="M54.9278 33.8912C52.6718 33.9136 52.0062 33.8912 51.795 33.8416C51.7118 34.2256 50.1918 41.1664 50.187 41.1728C49.859 42.5776 49.6206 43.5776 48.811 44.224C48.3556 44.5972 47.7819 44.7952 47.1934 44.7824C46.1934 44.7824 45.611 44.2912 45.5134 43.3584L45.4942 43.0384L45.7982 41.1488C45.7982 41.1488 47.3966 34.8224 47.6814 33.9856C47.692 33.9543 47.7 33.9222 47.7054 33.8896C44.5966 33.9184 44.0462 33.8896 44.0094 33.8416C43.987 33.9088 43.9102 34.3024 43.9102 34.3024L42.2782 41.432L42.139 42.0368L41.8686 44.0144C41.8686 44.6 41.9854 45.08 42.2174 45.4848C42.9598 46.768 45.0782 46.96 46.2766 46.96C47.8222 46.96 49.2702 46.6352 50.2494 46.0432C51.9486 45.0512 52.3934 43.4992 52.7902 42.1184L52.9742 41.4112C52.9742 41.4112 54.619 34.8416 54.8974 33.9872C54.9086 33.9392 54.9134 33.9136 54.9278 33.8912ZM60.523 39.1904C60.1278 39.1904 59.403 39.2864 58.7518 39.6016C58.515 39.7216 58.2926 39.8608 58.0558 39.9984L58.2686 39.2384L58.1534 39.1104C56.7726 39.3872 56.4638 39.424 55.1886 39.6016L55.0814 39.672C54.9342 40.8864 54.8014 41.8 54.2526 44.184C54.0429 45.0673 53.8285 45.9494 53.6094 46.8304L53.6686 46.9424C54.6135 46.8834 55.5605 46.8663 56.507 46.8912L56.5998 46.7936C56.7438 46.0624 56.763 45.8912 57.0814 44.4096C57.2318 43.7088 57.5454 42.1664 57.699 41.6176C57.9838 41.4864 58.2638 41.3584 58.531 41.3584C59.1662 41.3584 59.0894 41.9088 59.0654 42.1264C59.0382 42.4944 58.8062 43.6944 58.5694 44.7248L58.4094 45.3888C58.2974 45.88 58.1774 46.3584 58.067 46.8448L58.115 46.9408C59.403 46.8736 59.795 46.8736 60.8958 46.8928L61.0238 46.7936C61.2238 45.6512 61.2814 45.3456 61.6334 43.6832L61.811 42.92C62.1566 41.4256 62.3294 40.6672 62.0686 40.0496C61.7934 39.3584 61.131 39.1904 60.523 39.1904ZM66.7758 40.7568C66.091 40.8848 65.6558 40.9728 65.2206 41.0288C64.7902 41.0976 64.371 41.1584 63.7086 41.2496L63.6574 41.2976L63.6094 41.3344C63.5406 41.8208 63.491 42.2432 63.4014 42.7376C63.3214 43.2496 63.203 43.832 63.0094 44.6688C62.9328 45.0388 62.8285 45.4025 62.6974 45.7568C62.6126 45.9808 62.5214 46.2 62.3518 46.8288L62.3918 46.888L62.4238 46.9424C63.043 46.912 63.4478 46.8912 63.8638 46.888C64.2798 46.872 64.7086 46.888 65.3742 46.8912L65.4334 46.8448L65.4958 46.7936C65.5918 46.2256 65.6078 46.0736 65.6654 45.7952C65.723 45.4992 65.8238 45.088 66.0702 43.9888C66.187 43.4736 66.3166 42.9584 66.4382 42.432C66.563 41.9088 66.6942 41.392 66.819 40.8768L66.8014 40.8128L66.7758 40.7568ZM66.7902 38.6448C66.1678 38.2832 65.0766 38.3984 64.3422 38.9008C63.6094 39.392 63.5262 40.0896 64.1454 40.456C64.7566 40.8096 65.8526 40.704 66.5806 40.2C67.3118 39.696 67.403 39.0048 66.7886 38.6464L66.7902 38.6448ZM70.5518 47.056C71.811 47.056 73.1006 46.712 74.0718 45.6944C74.819 44.8688 75.1598 43.64 75.2798 43.1344C75.6654 41.4576 75.3646 40.6752 74.987 40.1984C74.4126 39.472 73.3998 39.2384 72.347 39.2384C71.7134 39.2384 70.2078 39.3008 69.0302 40.3744C68.1838 41.1488 67.7934 42.1984 67.5582 43.2064C67.3198 44.2336 67.0462 46.08 68.7646 46.768C69.2942 46.9936 70.0606 47.056 70.5518 47.056ZM70.4542 43.2832C70.7422 42.0128 71.0862 40.9472 71.9598 40.9472C72.6462 40.9472 72.6958 41.7408 72.3918 43.0144C72.3358 43.2976 72.0862 44.3488 71.747 44.7968C71.5118 45.1264 71.2318 45.3264 70.923 45.3264C70.8318 45.3264 70.2846 45.3264 70.2766 44.5248C70.2718 44.128 70.3534 43.7232 70.4526 43.2832H70.4542ZM78.4254 46.8928L78.523 46.7936C78.6638 46.0624 78.6862 45.8912 78.995 44.4096C79.1502 43.7088 79.4686 42.1664 79.619 41.6176C79.9038 41.4864 80.179 41.3584 80.4542 41.3584C81.0862 41.3584 81.0094 41.9072 80.9838 42.1264C80.9614 42.4944 80.7294 43.6944 80.4878 44.7248L80.3374 45.3888C80.2222 45.88 80.0974 46.3568 79.9854 46.8448L80.0334 46.9408C80.958 46.883 81.8848 46.867 82.811 46.8928L82.9438 46.7936C83.139 45.6512 83.1902 45.3456 83.555 43.6832L83.7278 42.92C84.0734 41.4256 84.2494 40.6672 83.9918 40.0496C83.7086 39.3584 83.043 39.192 82.4446 39.192C81.8314 39.2026 81.2274 39.3421 80.6718 39.6016C80.4398 39.7216 80.2078 39.8592 79.9806 39.9984L80.179 39.2384L80.0718 39.1104C78.6926 39.3872 78.3758 39.424 77.1038 39.6016L77.0062 39.672C76.851 40.8864 76.7262 41.8 76.1774 44.184C75.9694 45.064 75.7518 45.9536 75.5342 46.8304L75.5934 46.9424C76.5362 46.884 77.4811 46.8675 78.4254 46.8928ZM87.9182 46.9408C87.9998 46.5488 88.483 44.2256 88.4862 44.2256C88.4862 44.2256 88.8974 42.52 88.923 42.4576C88.923 42.4576 89.051 42.28 89.1822 42.2096H89.3726C91.1662 42.2096 93.1934 42.2096 94.7822 41.0528C95.8638 40.2608 96.603 39.0896 96.9326 37.6672C97.0174 37.3184 97.0814 36.904 97.0814 36.488C97.0814 35.944 96.9694 35.4048 96.6494 34.984C95.8398 33.8624 94.227 33.8416 92.3646 33.832L91.4462 33.8416C89.0622 33.8704 88.107 33.8624 87.7134 33.8144C87.6814 33.9856 87.6174 34.2912 87.6174 34.2912L86.7646 38.2112L84.6254 46.928C86.7054 46.9024 87.5598 46.9024 87.9182 46.9408ZM89.5022 39.9872L90.4046 36.096L90.4334 35.896L90.4462 35.744L90.8094 35.7808L92.7262 35.944C93.4654 36.2256 93.7694 36.9552 93.5582 37.9072C93.363 38.776 92.7934 39.5072 92.0606 39.8592C91.4574 40.16 90.7166 40.184 89.9566 40.184H89.4638L89.5006 39.9872H89.5022ZM95.1534 43.3552C94.9134 44.3664 94.6382 46.2144 96.347 46.8736C96.8926 47.1024 97.3806 47.1712 97.8782 47.1456C98.4014 47.1184 98.8862 46.8576 99.3374 46.4832L99.2158 46.9472L99.2926 47.0448C100.273 46.9995 101.255 46.9857 102.237 47.0032L102.357 46.912C102.552 45.7808 102.736 44.6832 103.241 42.52C103.488 41.4832 103.733 40.456 103.985 39.424L103.945 39.312C102.569 39.5632 102.203 39.616 100.88 39.8016L100.779 39.8816L100.739 40.1904C100.516 39.8278 100.176 39.5515 99.7758 39.4064C99.187 39.1776 97.8046 39.4704 96.6174 40.5424C95.7822 41.3056 95.3822 42.3504 95.1534 43.3552ZM98.043 43.4176C98.3374 42.1696 98.675 41.1152 99.5518 41.1152C100.105 41.1152 100.398 41.6208 100.339 42.4832C100.291 42.6992 100.241 42.9264 100.179 43.1824C100.093 43.552 99.9982 43.92 99.9054 44.2864C99.827 44.5162 99.7178 44.7342 99.5806 44.9344C99.3566 45.2512 98.819 45.4464 98.5102 45.4464C98.4222 45.4464 97.8814 45.4464 97.8638 44.6576C97.859 44.2656 97.9406 43.8608 98.043 43.4176ZM113.128 39.3008L113.022 39.1808C111.662 39.4528 111.414 39.496 110.165 39.664L110.072 39.7552L110.057 39.8128L110.054 39.792C109.123 41.9168 109.15 41.4576 108.392 43.1296C108.389 43.0544 108.389 43.0064 108.384 42.9264L108.193 39.3008L108.075 39.1808C106.649 39.4528 106.616 39.496 105.299 39.664L105.197 39.7552C105.181 39.7984 105.181 39.8448 105.173 39.8976L105.182 39.9152C105.347 40.7472 105.307 40.5616 105.472 41.8752C105.549 42.52 105.651 43.168 105.728 43.8032C105.859 44.8688 105.931 45.3936 106.089 47.0192C105.2 48.4704 104.99 49.0192 104.134 50.2928L104.139 50.3056L103.537 51.2496C103.469 51.3472 103.406 51.416 103.318 51.4448C103.192 51.4922 103.057 51.5113 102.923 51.5008H102.589L102.093 53.1328L103.795 53.1632C104.795 53.1584 105.424 52.696 105.763 52.0752L106.833 50.2592H106.817L106.929 50.1312C107.649 48.5984 113.128 39.2992 113.128 39.2992V39.3008ZM95.1534 60.7504H94.4318L97.1038 52H97.9902L98.2718 51.0992L98.3006 52.1008C98.267 52.7216 98.7598 53.2688 100.054 53.1792H101.55L102.065 51.4944H101.502C101.179 51.4944 101.029 51.4144 101.048 51.24L101.019 50.2208H98.2478V50.2256C97.3518 50.2448 94.675 50.312 94.1342 50.4544C93.4782 50.6208 92.787 51.112 92.787 51.112L93.059 50.2112H90.467L89.9262 52L87.2158 60.8816H86.6894L86.1742 62.5552H91.339L91.1646 63.112H93.7086L93.8782 62.5552H94.5934L95.1534 60.7472V60.7504ZM93.035 53.7792C92.619 53.8928 91.8478 54.2384 91.8478 54.2384L92.5358 52.0016H94.595L94.0974 53.632C94.0974 53.632 93.4606 53.6688 93.035 53.7792ZM93.075 56.9744C93.075 56.9744 92.427 57.0544 92.003 57.1504C91.5822 57.2752 90.795 57.672 90.795 57.672L91.5054 55.344H93.5758L93.075 56.9744ZM91.9198 60.7712H89.8558L90.4542 58.808H92.515L91.923 60.7712H91.9198ZM96.8958 55.344H99.875L99.4478 56.7152H96.4286L95.9758 58.2144H98.6158L96.6174 60.9984C96.5229 61.1517 96.3806 61.2697 96.2126 61.3344C96.0479 61.4268 95.8636 61.4789 95.675 61.4864H94.9438L94.4398 63.128H96.3566C97.3518 63.128 97.9406 62.68 98.3742 62.0928L99.7454 60.2368L100.04 62.12C100.104 62.4736 100.36 62.68 100.533 62.76C100.725 62.856 100.923 63.0192 101.205 63.0432C101.504 63.056 101.721 63.0656 101.865 63.0656H102.806L103.373 61.2288H103C102.787 61.2288 102.421 61.1936 102.358 61.128C102.294 61.048 102.294 60.9232 102.262 60.736L101.963 58.8464H100.739L101.277 58.2144H104.288L104.752 56.7152H101.963L102.397 55.344H105.177L105.693 53.6544H97.4046L96.8974 55.344H96.8958ZM71.739 61.152L72.435 58.864H75.2926L75.8142 57.1632H72.9534L73.3902 55.7552H76.1854L76.7038 54.1072H69.7118L69.203 55.7552H70.7918L70.3678 57.1632H68.7758L68.2478 58.8944H69.835L68.9086 61.92C68.7838 62.32 68.9678 62.4736 69.0846 62.6608C69.203 62.8416 69.3246 62.9616 69.5966 63.0288C69.875 63.0928 70.067 63.128 70.3278 63.128H73.5486L74.1246 61.2432L72.6958 61.4368C72.419 61.4368 71.6558 61.4048 71.739 61.152ZM72.067 50.2016L71.3422 51.4976C71.1886 51.7792 71.0478 51.9552 70.923 52.0352C70.811 52.104 70.5934 52.1312 70.2766 52.1312H69.8974L69.3934 53.7872H70.6478C71.251 53.7872 71.715 53.5696 71.9358 53.4592C72.1742 53.3344 72.2366 53.4064 72.419 53.2304L72.843 52.8672H76.763L77.2814 51.1424H74.4158L74.9166 50.2016H72.0686H72.067ZM77.851 61.1856C77.7838 61.0896 77.8334 60.9232 77.9342 60.5744L79.0062 57.0688H82.8142C83.371 57.0608 83.771 57.0528 84.0318 57.0368C84.3118 57.0064 84.6158 56.9088 84.9486 56.7296C85.291 56.544 85.467 56.3488 85.6142 56.1216C85.779 55.8976 86.0446 55.4064 86.2718 54.6496L87.6174 50.2128L83.6654 50.2352C83.6654 50.2352 82.4478 50.4112 81.9118 50.608C81.371 50.8272 80.5982 51.4384 80.5982 51.4384L80.955 50.2224H78.5134L75.0942 61.4384C74.9726 61.8736 74.891 62.1904 74.8734 62.3792C74.867 62.584 75.1342 62.7856 75.3054 62.9392C75.5118 63.0912 75.8142 63.0672 76.1054 63.0912C76.4094 63.1136 76.843 63.128 77.4414 63.128H79.3182L79.8942 61.2048L78.2142 61.3616C78.144 61.3631 78.0745 61.3479 78.0114 61.3173C77.9482 61.2867 77.8932 61.2416 77.851 61.1856ZM79.6958 54.7008H83.6974L83.443 55.4896C83.4078 55.5072 83.323 55.4496 82.915 55.4976H79.451L79.6958 54.7008ZM80.4974 52.056H84.5326L84.243 53.0048C84.243 53.0048 82.3406 52.9872 82.0366 53.0432C80.6958 53.272 79.9134 53.9808 79.9134 53.9808L80.4974 52.056ZM83.5326 58.1296C83.5105 58.2274 83.4543 58.3142 83.3742 58.3744C83.2942 58.4256 83.1614 58.4432 82.9662 58.4432H82.395L82.4286 57.4832H80.0574L79.9614 62.1792C79.9582 62.5168 79.9902 62.7136 80.2414 62.8704C80.4926 63.0672 81.2654 63.0912 82.3038 63.0912H83.7902L84.3262 61.3344L83.0318 61.4048L82.603 61.4288C82.5366 61.4057 82.4761 61.3686 82.4254 61.32C82.371 61.2656 82.2782 61.2992 82.2942 60.96L82.3038 59.7568L83.6606 59.7008C84.3934 59.7008 84.7054 59.4656 84.9726 59.2416C85.2286 59.0256 85.3118 58.7776 85.4078 58.4432L85.635 57.3776H83.771L83.5326 58.1296Z" fill="#FEFEFE"/>
</svg>
