<svg width="152" height="96" viewBox="0 0 152 96" fill="none" xmlns="http://www.w3.org/2000/svg">
<path opacity="0.07" d="M140 0H12C5.2 0 0 5.2 0 12V84C0 90.8 5.6 96 12 96H140C146.8 96 152 90.8 152 84V12C152 5.2 146.4 0 140 0Z" fill="black"/>
<path d="M140 4C144.4 4 148 7.6 148 12V84C148 88.4 144.4 92 140 92H12C7.6 92 4 88.4 4 84V12C4 7.6 7.6 4 12 4H140Z" fill="white"/>
<path d="M31.6593 30C28.531 30 26 32.5096 26 35.608V59.3931C26 62.489 28.531 65 31.6593 65H55.6707C58.7966 65 61.3287 62.4891 61.3287 59.3931V59.1497C61.2234 59.1062 52.1471 55.3557 47.5338 53.158C44.4215 56.9525 40.4071 59.2546 36.239 59.2546C29.1909 59.2546 26.7974 53.1435 30.1347 49.1207C30.8624 48.2438 32.1002 47.406 34.0214 46.937C37.0267 46.2055 41.8097 47.3938 46.2925 48.8594C47.0989 47.3877 47.7772 45.767 48.2825 44.0413H34.4679V42.6552H41.5913V40.1698H32.9636V38.7825H41.5913V35.2371C41.5913 35.2371 41.5913 34.6399 42.2022 34.6399H45.6845V38.7825H54.2137V40.1698H45.6845V42.6552H52.6465C51.9803 45.3591 50.9688 47.848 49.699 50.0328C51.812 50.79 53.7086 51.5082 55.1222 51.9772C59.8371 53.5402 61.1585 53.7312 61.329 53.7511V35.6081C61.329 32.5098 58.7969 30.0001 55.6711 30.0001H31.6597L31.6593 30ZM35.5335 48.9632C35.231 48.9667 34.9271 48.983 34.6209 49.0129C33.7383 49.1008 32.0813 49.4867 31.1753 50.2805C28.46 52.6265 30.0852 56.9155 35.581 56.9155C38.7757 56.9155 41.9677 54.892 44.4752 51.652C41.2425 50.0892 38.458 48.9296 35.5335 48.9632L35.5335 48.9632Z" fill="#00A1E9"/>
<path d="M122.774 54.331L121.197 57.7335L119.596 54.331H118.033L120.467 59.0353V62.3168H121.902V59.0353L121.911 59.017L124.336 54.331L122.774 54.331ZM111.227 56.3895L112.339 59.7016H110.075L111.227 56.3895ZM112.681 60.708L113.217 62.3164H114.72L111.761 54.3305H110.611L107.661 62.3164H109.166L109.725 60.708H112.681ZM101.462 58.1486H99.8652V55.4166H101.462C102.265 55.4166 102.744 56.114 102.744 56.7881C102.744 57.4476 102.295 58.1485 101.462 58.1485V58.1486ZM101.543 54.3308H98.4197V62.3167H99.8652V59.2465H101.543C103.102 59.2465 104.191 58.2353 104.191 56.7881C104.191 55.3408 103.102 54.3309 101.543 54.3309L101.543 54.3308ZM91.1122 62.3168H92.559V54.3309H91.1122V62.3168ZM80.9431 54.331V62.317H85.8094V61.2288H82.3886V54.3311L80.9431 54.331ZM72.7078 56.3895L73.819 59.7016H71.5561L72.7078 56.3895ZM74.162 60.708L74.6979 62.3164H76.2L73.2401 54.3305H72.0921L69.142 62.3164H70.6453L71.2046 60.708H74.162ZM84.3389 38.7196H78.1377V36.5115H85.3285V35.1364H78.1377V32.3385H74.932C74.5804 32.3385 74.2965 32.6316 74.2965 32.9918V35.1364H67.1561V36.5116H74.2965V38.7196H68.2698V40.0935H80.2737C80.2737 40.0935 79.6087 42.6741 76.3158 45.4475C73.3657 43.2285 72.3799 41.4613 72.3799 41.4613H69.1594C70.4623 43.7049 72.3135 45.5013 74.3072 46.9265C72.4758 48.1087 70.1009 49.2482 67.0304 50.1604V51.8067C67.0304 51.8067 71.7677 50.9189 76.3465 48.2382C80.9326 50.8981 85.5384 51.8067 85.5384 51.8067V50.2484C82.5908 49.1822 80.2553 48.0098 78.4214 46.8789C81.0777 44.9237 83.4058 42.2698 84.3387 38.7196L84.3389 38.7196ZM104.483 32.6139H101.255V35.9651H93.2982V37.3146H101.255V49.3629C101.226 49.6389 101.008 49.8538 100.734 49.8685H99.0926V51.2644H103.277C103.939 51.2376 104.468 50.6917 104.483 50.015V37.3146H105.793V35.9651H104.483L104.483 32.6139ZM97.6752 39.588C97.5572 39.3486 97.3163 39.1838 97.036 39.1813H94.3466L96.4424 45.7371H99.6236L97.6752 39.588ZM89.7311 32.4553L86.0287 41.1568H88.8693V51.5107H91.9755V37.7766H90.8496L93.1888 32.4555L89.7311 32.4553ZM125.75 51.0358L124.615 47.2279C124.539 46.9848 124.318 46.809 124.055 46.809H121.047L121.92 49.734H118.383V44.0673H125.327V42.719H118.383V40.0517H125.327V38.7034H108V40.0517H114.942V42.719H108V44.0673H114.942V49.734H108V51.0823H125.751L125.736 51.0359L125.75 51.0358ZM111.61 35.4863H121.722V37.4757H125.335V35.1187C125.334 35.1138 125.334 35.1114 125.334 35.1052C125.334 34.5752 124.916 34.1466 124.398 34.138H118.552V32.2829H114.772V34.138H107.998V37.4758H111.61L111.61 35.4863Z" fill="#3F3B3A"/>
</svg>
