<svg width="39" height="24" viewBox="0 0 39 24" fill="none" xmlns="http://www.w3.org/2000/svg">
<g clip-path="url(#clip0)">
<path opacity="0.07" d="M35.5125 0H3.58589C1.88979 0 0.592773 1.3 0.592773 3V21C0.592773 22.7 1.98956 24 3.58589 24H35.5125C37.2086 24 38.5056 22.7 38.5056 21V3C38.5056 1.3 37.1088 0 35.5125 0Z" fill="black"/>
<path d="M35.4105 1C36.508 1 37.406 1.9 37.406 3V21C37.406 22.1 36.508 23 35.4105 23H3.48394C2.38646 23 1.48853 22.1 1.48853 21V3C1.48853 1.9 2.38646 1 3.48394 1H35.4105Z" fill="white"/>
<path d="M24.336 8.3C24.5356 7.3 24.336 6.6 23.7374 6C23.1388 5.3 22.0413 5 20.6445 5H16.5539C16.2546 5 16.0551 5.2 15.9553 5.5L14.4587 15.6C14.4587 15.8 14.5585 16 14.7581 16H17.4519L17.8509 12.6L19.6468 10.4L24.336 8.3Z" fill="#003087"/>
<path d="M24.3361 8.30005L24.1366 8.50005C23.6377 11.3 21.9416 12.3 19.5471 12.3H18.4496C18.1503 12.3 17.9508 12.5 17.851 12.8L17.2524 16.7L17.0529 17.7C17.0529 17.9 17.1526 18.1 17.3522 18.1H19.4474C19.7467 18.1 19.9462 17.9 19.9462 17.7V17.6L20.3453 15.2V15.1C20.3453 14.9 20.6446 14.7 20.8441 14.7H21.1435C23.2386 14.7 24.835 13.9 25.234 11.5C25.4336 10.5 25.3338 9.70005 24.835 9.10005C24.7352 8.60005 24.5357 8.40005 24.3361 8.30005Z" fill="#3086C8"/>
<path d="M23.7373 8.10005C23.6375 8.00005 23.5378 8.00005 23.438 8.00005C23.3382 8.00005 23.2384 8.00005 23.1387 7.90005C22.8394 7.80005 22.4403 7.80005 22.0412 7.80005H19.0481C18.9483 7.80005 18.8485 7.80005 18.8485 7.90005C18.649 8.00005 18.5492 8.10005 18.5492 8.30005L17.8508 12.7001V12.8001C17.8508 12.5001 18.1501 12.3001 18.4495 12.3001H19.7465C22.2407 12.3001 23.8371 11.3001 24.3359 8.50005V8.30005C24.2361 8.20005 24.0366 8.10005 23.8371 8.10005H23.7373Z" fill="#012169"/>
</g>
<defs>
<clipPath id="clip0">
<rect width="37.9128" height="24" fill="white" transform="translate(0.490845)"/>
</clipPath>
</defs>
</svg>
