<svg width="152" height="96" viewBox="0 0 152 96" fill="none" xmlns="http://www.w3.org/2000/svg">
<path opacity="0.07" d="M140 0H12C5.2 0 0 5.2 0 12V84C0 90.8 5.6 96 12 96H140C146.8 96 152 90.8 152 84V12C152 5.2 146.4 0 140 0Z" fill="black"/>
<path d="M140 4C144.4 4 148 7.6 148 12V84C148 88.4 144.4 92 140 92H12C7.6 92 4 88.4 4 84V12C4 7.6 7.6 4 12 4H140Z" fill="white"/>
<path d="M40.4388 32.4062C41.7108 30.8162 42.5732 28.6809 42.3458 26.4993C40.485 26.5917 38.2147 27.7269 36.8992 29.3187C35.7187 30.6812 34.6742 32.9054 34.946 34.9954C37.0351 35.1766 39.1224 33.9518 40.4388 32.4062Z" fill="black"/>
<path d="M42.3223 35.404C39.2873 35.2228 36.709 37.1253 35.2603 37.1253C33.8108 37.1253 31.5921 35.4946 29.1922 35.539C26.0694 35.5843 23.1721 37.3509 21.5867 40.1594C18.3271 45.7763 20.726 54.1112 23.8969 58.6863C25.4361 60.9512 27.2915 63.4426 29.7358 63.3529C32.046 63.2623 32.9511 61.858 35.7577 61.858C38.5635 61.858 39.3788 63.3529 41.824 63.3076C44.3589 63.2623 45.9443 61.0427 47.4836 58.7778C49.2502 56.1958 49.9722 53.7044 50.0175 53.5685C49.9722 53.5232 45.129 51.6651 45.0837 46.0934C45.0384 41.4277 48.8869 39.2081 49.0681 39.0713C46.8947 35.857 43.4991 35.4946 42.3214 35.404" fill="black"/>
<path d="M72.5686 29.0904C79.1622 29.0904 83.7545 33.6356 83.7545 40.2527C83.7545 46.8934 79.068 51.4622 72.4038 51.4622H65.1035V63.0729H59.829V29.0904H72.5686ZM65.1035 47.0347H71.1553C75.7486 47.0347 78.3613 44.5624 78.3613 40.2763C78.3613 35.9911 75.7477 33.5414 71.1789 33.5414H65.1035V47.0347Z" fill="black"/>
<path d="M85.0627 56.0309C85.0627 51.6741 88.3831 49.1782 94.5056 48.8013L101.076 48.4009V46.5165C101.076 43.7624 99.2627 42.2549 96.0366 42.2549C93.3749 42.2549 91.4434 43.6202 91.0448 45.7156H86.2867C86.4289 41.3127 90.5728 38.1101 96.178 38.1101C102.206 38.1101 106.139 41.2656 106.139 46.1641V63.072H101.265V58.9979H101.147C99.7574 61.6587 96.6953 63.3302 93.3749 63.3302C88.4773 63.3302 85.0627 60.4112 85.0627 56.0309ZM101.076 53.8412V51.9332L95.2122 52.3101C91.9145 52.5221 90.1968 53.7461 90.1968 55.8887C90.1968 57.9615 91.9861 59.3041 94.7882 59.3041C98.3668 59.3041 101.076 57.0193 101.076 53.8412Z" fill="black"/>
<path d="M110.621 72.1615V68.0883C110.951 68.1345 111.75 68.1816 112.174 68.1816C114.506 68.1816 115.825 67.1941 116.625 64.6493L117.097 63.1427L108.171 38.4163H113.681L119.899 58.4797H120.016L126.233 38.4163H131.603L122.348 64.3902C120.228 70.3487 117.802 72.3037 112.669 72.3037C112.269 72.3037 110.973 72.2566 110.621 72.1615Z" fill="black"/>
</svg>
