<svg width="152" height="96" viewBox="0 0 152 96" fill="none" xmlns="http://www.w3.org/2000/svg">
<path opacity="0.07" d="M140 0H12C5.2 0 0 5.2 0 12V84C0 90.8 5.6 96 12 96H140C146.8 96 152 90.8 152 84V12C152 5.2 146.4 0 140 0Z" fill="black"/>
<path d="M140 4C144.4 4 148 7.6 148 12V84C148 88.4 144.4 92 140 92H12C7.6 92 4 88.4 4 84V12C4 7.6 7.6 4 12 4H140Z" fill="white"/>
<path d="M72.7109 51.2056V64.8764H68.4396V31.13H79.7678C82.5003 31.0762 85.1533 32.1257 87.09 34.0633C90.9633 37.7232 91.2021 43.8858 87.5675 47.8418C87.4083 48.0032 87.2491 48.1647 87.09 48.3262C85.1002 50.2368 82.6595 51.2056 79.7678 51.2056H72.7109ZM72.7109 35.2743V47.0613H79.8739C81.4657 47.1152 83.0044 46.4693 84.0921 45.3121C86.3206 42.9709 86.2675 39.2033 83.9594 36.9428C82.8717 35.8663 81.4126 35.2743 79.8739 35.2743H72.7109Z" fill="#3C4043"/>
<path d="M100.01 41.0333C103.167 41.0333 105.661 41.8944 107.491 43.5898C109.322 45.2852 110.224 47.6534 110.224 50.6405V64.8765H106.138V61.6741H105.953C104.175 64.3113 101.84 65.63 98.8957 65.63C96.4019 65.63 94.2795 64.8765 92.6081 63.3695C90.9633 61.9701 90.0347 59.8979 90.0878 57.7181C90.0878 55.3231 90.9898 53.4393 92.7673 52.013C94.5448 50.5867 96.9325 49.887 99.9038 49.887C102.451 49.887 104.52 50.3714 106.165 51.2864V50.2907C106.165 48.8106 105.528 47.4112 104.414 46.4424C103.273 45.4198 101.814 44.8547 100.302 44.8547C97.9141 44.8547 96.0304 45.8773 94.6509 47.9225L90.8837 45.5274C92.8999 42.5403 95.9509 41.0333 100.01 41.0333ZM94.4917 57.7989C94.4917 58.9291 95.0223 59.9787 95.8978 60.6245C96.8529 61.378 98.0202 61.7817 99.214 61.7548C101.018 61.7548 102.742 61.0282 104.016 59.7365C105.422 58.3909 106.138 56.8032 106.138 54.9732C104.812 53.8968 102.955 53.3585 100.567 53.3855C98.8426 53.3855 97.3835 53.816 96.2162 54.6503C95.0754 55.4845 94.4917 56.534 94.4917 57.7989Z" fill="#3C4043"/>
<path fill-rule="evenodd" clip-rule="evenodd" d="M133.676 41.7868L119.403 75.0219H114.999L120.305 63.3964L110.94 41.7868H115.583L122.348 58.364H122.428L129.033 41.7868H133.676Z" fill="#3C4043"/>
<path fill-rule="evenodd" clip-rule="evenodd" d="M55.4401 48.2454C55.4401 46.9268 55.3339 45.6082 55.1217 44.3164H37.108V51.7708H47.4281C47.0036 54.1659 45.6241 56.3188 43.6078 57.6643V62.5083H49.7627C53.3707 59.1444 55.4401 54.1659 55.4401 48.2454Z" fill="#4285F4"/>
<path fill-rule="evenodd" clip-rule="evenodd" d="M37.108 67.1908C42.2548 67.1908 46.6056 65.4685 49.7627 62.5083L43.6078 57.6643C41.8834 58.8484 39.6814 59.5212 37.108 59.5212C32.1204 59.5212 27.9022 56.1035 26.39 51.5286H20.0494V56.5341C23.286 63.0734 29.8919 67.1908 37.108 67.1908Z" fill="#34A853"/>
<path fill-rule="evenodd" clip-rule="evenodd" d="M26.39 51.5286C25.5941 49.1335 25.5941 46.5232 26.39 44.1012V39.1226H20.0494C17.3169 44.5856 17.3169 51.0442 20.0494 56.5072L26.39 51.5286Z" fill="#FBBC04"/>
<path fill-rule="evenodd" clip-rule="evenodd" d="M37.108 36.1086C39.8406 36.0547 42.467 37.1043 44.4302 39.015L49.8953 33.4713C46.4199 30.1881 41.8568 28.3851 37.108 28.4389C29.8919 28.4389 23.286 32.5832 20.0494 39.1226L26.39 44.1281C27.9022 39.5263 32.1204 36.1086 37.108 36.1086Z" fill="#EA4335"/>
</svg>
