<svg width="152" height="96" viewBox="0 0 152 96" fill="none" xmlns="http://www.w3.org/2000/svg">
<path opacity="0.07" d="M140 0H12C5.2 0 0 5.2 0 12V84C0 90.8 5.6 96 12 96H140C146.8 96 152 90.8 152 84V12C152 5.2 146.4 0 140 0Z" fill="black"/>
<path d="M140 4C144.4 4 148 7.6 148 12V84C148 88.4 144.4 92 140 92H12C7.6 92 4 88.4 4 84V12C4 7.6 7.6 4 12 4H140Z" fill="white"/>
<path d="M113.2 40.4H112C110.4 44.4 109.2 46.4 108 52.4H115.6C114.4 46.4 114.4 43.6 113.2 40.4ZM124.8 64H118C117.6 64 117.6 64 117.2 63.6L116.4 60L116 59.2H106.4C106 59.2 105.6 59.2 105.6 60L104.4 63.6C104.4 64 104 64 104 64H95.6L96.4 62L108 34.8C108 32.8 109.2 32 111.2 32H117.2C117.6 32 118 32 118 32.8L123.6 58.8C124 60.4 124.4 61.6 124.4 63.2C124.8 63.6 124.8 63.6 124.8 64ZM71.2 62.8L72.8 55.6C73.2 55.6 73.6 56 73.6 56C76.4 57.2 79.2 58 82 57.6C82.8 57.6 84 57.2 84.8 56.8C86.8 56 86.8 54 85.2 52.4C84.4 51.6 83.2 51.2 82 50.4C80.4 49.6 78.8 48.8 77.6 47.6C72.8 43.6 74.4 38 77.2 35.2C79.6 33.6 80.8 32 84 32C88.8 32 94 32 96.4 32.8H96.8C96.4 35.2 96 37.2 95.2 39.6C93.2 38.8 91.2 38 89.2 38C88 38 86.8 38 85.6 38.4C84.8 38.4 84.4 38.8 84 39.2C83.2 40 83.2 41.2 84 42L86 43.6C87.6 44.4 89.2 45.2 90.4 46C92.4 47.2 94.4 49.2 94.8 51.6C95.6 55.2 94.4 58.4 91.2 60.8C89.2 62.4 88.4 63.2 85.6 63.2C80 63.2 75.6 63.6 72 62.4C71.6 63.2 71.6 63.2 71.2 62.8ZM57.2 64C57.6 61.2 57.6 61.2 58 60C60 51.2 62 42 63.6 33.2C64 32.4 64 32 64.8 32H72C71.2 36.8 70.4 40.4 69.2 44.8C68 50.8 66.8 56.8 65.2 62.8C65.2 63.6 64.8 63.6 64 63.6L57.2 64ZM20 32.8C20 32.4 20.8 32 21.2 32H34.8C36.8 32 38.4 33.2 38.8 35.2L42.4 52.8C42.4 53.2 42.4 53.2 42.8 53.6C42.8 53.2 43.2 53.2 43.2 53.2L51.6 32.8C51.2 32.4 51.6 32 52 32H60.4C60.4 32.4 60.4 32.4 60 32.8L47.6 62C47.2 62.8 47.2 63.2 46.8 63.6C46.4 64 45.6 63.6 44.8 63.6H38.8C38.4 63.6 38 63.6 38 62.8L31.6 38C30.8 37.2 29.6 36 28 35.6C25.6 34.4 21.2 33.6 20.4 33.6L20 32.8Z" fill="#142688"/>
</svg>
